<?xml version="1.0" encoding="utf-8"?>
<!-- Generator: Adobe Illustrator 25.1.0, SVG Export Plug-In . SVG Version: 6.00 Build 0)  -->
<svg version="1.1" id="Layer_1" xmlns="http://www.w3.org/2000/svg" xmlns:xlink="http://www.w3.org/1999/xlink" x="0px" y="0px"
	 viewBox="0 0 1603.7 216.5" style="enable-background:new 0 0 1603.7 216.5;" xml:space="preserve">
<style type="text/css">
	.st0{fill:#FF4713;}
</style>
<g>
	<path d="M176.1,186.1c0.9,0.8,1.9,1.8,3.1,2.4c9.7,6.1,22.3,3.3,28.5-6.3s3.3-22.3-6.3-28.5l-41-26.1l-3.3-2.2
		c-0.3-0.1-0.5-0.4-0.8-0.5c-6.6-3.6-14.7-1.1-18.3,5.4L91,216.5l59.3-54.8L176.1,186.1z"/>
	<path d="M221.5,75.8c0.8-0.9,1.8-1.9,2.4-3.1c6.1-9.7,3.3-22.3-6.3-28.5c-9.7-6.1-22.3-3.3-28.5,6.3l-26.1,41l-2.2,3.3
		c-0.1,0.3-0.4,0.5-0.5,0.8c-3.6,6.6-1.1,14.7,5.4,18.3l86.3,46.8l-54.8-59.3L221.5,75.8z"/>
	<path class="st0" d="M111.1,30.4c-0.9-0.8-1.9-1.8-3.1-2.4c-9.7-6.1-22.3-3.3-28.5,6.3s-3.3,22.3,6.3,28.5l41,26.1l3.3,2.2
		c0.3,0.1,0.5,0.4,0.8,0.5c6.6,3.6,14.7,1.1,18.3-5.4L196.2,0l-59.3,54.8L111.1,30.4z"/>
	<path d="M65.8,140.7c-0.8,0.9-1.8,1.9-2.4,3.1c-6.2,9.7-3.3,22.3,6.3,28.5c9.7,6.1,22.3,3.3,28.5-6.3l26.1-41l2.2-3.3
		c0.1-0.3,0.4-0.5,0.5-0.8c3.6-6.6,1.1-14.7-5.4-18.3L35.3,55.7L90.1,115L65.8,140.7z"/>
</g>
<g>
	<path d="M276.7,71.6h34c5.5,0,10.2,0.7,14.1,2.1s7,3.3,9.4,5.8c4.2,4.1,6.4,9.7,6.4,16.8v0.2c0,5.5-1.3,10.1-4,13.8
		s-6.3,6.4-10.8,8.3l17.2,25.1h-23l-14.5-21.8h-0.2h-8.5v21.8h-20V71.6z M309.8,106.1c3.4,0,6.1-0.8,7.9-2.3s2.8-3.6,2.8-6.2v-0.2
		c0-2.9-1-5-2.9-6.4c-1.9-1.4-4.6-2.1-7.9-2.1h-13.1v17.3L309.8,106.1L309.8,106.1z"/>
	<path d="M344.9,71.6h57.9v17h-38.1v10.9h34.5v15.7h-34.5v11.4h38.7v17h-58.4L344.9,71.6L344.9,71.6z"/>
	<path d="M436,71.1h19.2l30.6,72.5h-21.4l-5.2-12.9h-27.8l-5.1,12.9h-21L436,71.1z M453.4,115.2l-8-20.5l-8.1,20.5H453.4z"/>
	<path d="M487.8,71.6h27.8c6.4,0,12.2,0.9,17.2,2.6c5,1.8,9.3,4.2,12.8,7.4s6.1,6.9,7.9,11.3s2.7,9.1,2.7,14.4v0.2
		c0,5.2-0.9,10-2.8,14.5c-1.8,4.4-4.5,8.2-8,11.5s-7.8,5.7-12.8,7.6c-5.1,1.8-10.9,2.7-17.4,2.7h-27.4L487.8,71.6L487.8,71.6z
		 M515.9,125.9c6,0,10.8-1.6,14.4-4.7c3.6-3.1,5.5-7.6,5.5-13.5v-0.2c0-5.8-1.8-10.2-5.5-13.4s-8.4-4.8-14.4-4.8h-8.1v36.6
		L515.9,125.9L515.9,125.9z"/>
	<path d="M572.6,116.6l-27.3-45h22.7l14.8,26.2l14.9-26.2H620l-27.3,44.7v27.2h-20L572.6,116.6L572.6,116.6z"/>
	<path d="M655.3,144.9c-5.1,0-9.8-0.6-13.9-2s-7.6-3.3-10.5-6s-5.1-6.1-6.6-10.3s-2.3-9-2.3-14.6V71.6h20.3v40
		c0,5.2,1.2,9.1,3.6,11.6c2.4,2.5,5.6,3.8,9.7,3.8c4,0,7.3-1.2,9.7-3.6c2.4-2.4,3.6-6.1,3.6-11.2V71.6H689v39.9
		c0,5.8-0.8,10.8-2.4,15c-1.6,4.2-3.9,7.6-6.8,10.4c-2.9,2.7-6.4,4.8-10.6,6.1C665.1,144.3,660.4,144.9,655.3,144.9z"/>
	<path d="M693,71.6h30.8c4.5,0,8.6,0.6,12.3,1.7s6.8,2.8,9.5,4.9c2.6,2.2,4.6,4.8,6,8c1.4,3.1,2.1,6.7,2.1,10.7v0.2
		c0,4.2-0.8,8-2.3,11.2s-3.7,5.9-6.4,8.1c-2.7,2.2-6,3.8-9.8,4.9c-3.8,1.1-7.9,1.6-12.4,1.6H713v20.6h-20L693,71.6L693,71.6z
		 M722.4,107.4c3.6,0,6.4-0.8,8.4-2.5s3-4,3-6.8v-0.2c0-3.1-1-5.4-3-7c-2-1.6-4.8-2.4-8.5-2.4H713v19L722.4,107.4L722.4,107.4z"/>
</g>
<g>
	<path d="M748.9,72.5c0.3-0.7,0.7-1.2,1.2-1.7c0.5-0.5,1.1-0.9,1.8-1.1s1.4-0.4,2.1-0.4s1.5,0.1,2.1,0.4c0.7,0.3,1.2,0.7,1.7,1.1
		s0.9,1.1,1.2,1.7c0.3,0.7,0.4,1.4,0.4,2.1c0,0.8-0.2,1.5-0.4,2.2c-0.3,0.7-0.7,1.2-1.2,1.7s-1.1,0.9-1.7,1.1s-1.4,0.4-2.1,0.4
		s-1.5-0.1-2.1-0.4s-1.2-0.7-1.8-1.1c-0.5-0.5-0.9-1.1-1.2-1.7c-0.3-0.7-0.4-1.4-0.4-2.2C748.5,73.9,748.6,73.2,748.9,72.5z
		 M749.8,76.5c0.2,0.6,0.5,1.1,1,1.5c0.4,0.4,0.9,0.8,1.4,1s1.2,0.4,1.8,0.4c0.6,0,1.2-0.1,1.8-0.4c0.5-0.2,1-0.6,1.4-1
		s0.7-0.9,1-1.5c0.2-0.6,0.3-1.2,0.3-1.9c0-0.6-0.1-1.3-0.3-1.8s-0.5-1.1-1-1.5s-0.9-0.7-1.4-1c-0.5-0.2-1.1-0.4-1.8-0.4
		c-0.6,0-1.2,0.1-1.8,0.4s-1,0.6-1.4,1c-0.4,0.4-0.7,0.9-1,1.5c-0.2,0.6-0.3,1.2-0.3,1.8C749.5,75.3,749.6,76,749.8,76.5z
		 M754.3,71.5c0.8,0,1.3,0.1,1.7,0.5c0.4,0.3,0.5,0.8,0.5,1.4c0,0.6-0.2,1-0.5,1.3c-0.3,0.3-0.7,0.4-1.2,0.5l1.8,2.8h-1.1l-1.7-2.8
		h-1v2.8h-1v-6.4L754.3,71.5L754.3,71.5z M753.9,74.3c0.2,0,0.4,0,0.6,0c0.2,0,0.4-0.1,0.5-0.1c0.2-0.1,0.3-0.2,0.4-0.3
		c0.1-0.1,0.1-0.3,0.1-0.6c0-0.2,0-0.4-0.1-0.5c-0.1-0.1-0.2-0.2-0.3-0.3c-0.1-0.1-0.3-0.1-0.5-0.1c-0.2,0-0.3,0-0.5,0h-1.3v2
		L753.9,74.3L753.9,74.3z"/>
</g>
<g>
	<path d="M852.4,124.4h-40l-8.6,19.2h-7.9l32.9-71.9h7.5l32.9,71.9h-8L852.4,124.4z M849.6,118.2l-17.3-38.6l-17.3,38.6H849.6z"/>
	<path d="M937.2,96.3c0,15.3-11.1,24.5-29.4,24.5h-19.3v22.7h-7.6V71.7h26.9C926.1,71.7,937.2,80.9,937.2,96.3z M929.6,96.3
		c0-11.5-7.6-18.1-22-18.1h-19.1v35.9h19.1C922,114.2,929.6,107.6,929.6,96.3z"/>
	<path d="M953.7,71.7h7.6v71.9h-7.6V71.7z"/>
	<path d="M1062.4,137v6.6h-50.8V71.7h49.3v6.6h-41.7v25.6h37.2v6.5h-37.2V137H1062.4z"/>
	<path d="M1124.4,143.6l-23.2-31.6l-23.1,31.6h-8.7l27.3-37l-25.6-34.9h8.7l21.7,29.4l21.6-29.4h8.2l-25.5,34.7l27.4,37.2H1124.4z"
		/>
	<path d="M1188.5,124.4h-40l-8.6,19.2h-7.9l32.9-71.9h7.5l32.9,71.9h-8L1188.5,124.4z M1185.7,118.2l-17.3-38.6l-17.3,38.6H1185.7z"
		/>
	<path d="M1291.7,71.7v71.9h-7.3V86.1l-28.2,48.4h-3.6l-28.2-48.1v57.2h-7.3V71.7h6.3l31.2,53.3l30.9-53.3H1291.7z"/>
	<path d="M1371.4,96.3c0,15.3-11.1,24.5-29.4,24.5h-19.3v22.7h-7.6V71.7h26.9C1360.3,71.7,1371.4,80.9,1371.4,96.3z M1363.8,96.3
		c0-11.5-7.6-18.1-22-18.1h-19.1v35.9h19.1C1356.2,114.2,1363.8,107.6,1363.8,96.3z"/>
	<path d="M1387.9,71.7h7.6V137h40.3v6.6h-47.9V71.7z"/>
	<path d="M1499.2,137v6.6h-50.8V71.7h49.3v6.6h-41.7v25.6h37.2v6.5h-37.2V137H1499.2z"/>
	<path d="M1510.2,134.9l3-5.9c5.1,5,14.3,8.7,23.7,8.7c13.5,0,19.3-5.6,19.3-12.7c0-19.7-44.3-7.6-44.3-34.2
		c0-10.6,8.2-19.7,26.5-19.7c8.1,0,16.5,2.4,22.3,6.4l-2.6,6.1c-6.2-4-13.3-6-19.7-6c-13.1,0-19,5.9-19,13c0,19.7,44.3,7.8,44.3,34
		c0,10.6-8.4,19.6-26.8,19.6C1526.1,144.2,1515.5,140.4,1510.2,134.9z"/>
</g>
</svg>
